<svg width="22" height="30" viewBox="0 0 22 30" fill="none" xmlns="http://www.w3.org/2000/svg">
<path d="M11.4002 0.348559C11.3102 0.219894 11.1603 0.142822 11 0.142822C10.8397 0.142822 10.6897 0.219894 10.5998 0.348559C10.1961 0.925782 0.714294 14.5451 0.714294 19.8794C0.714294 25.381 5.3284 29.8571 11 29.8571C16.6716 29.8571 21.2857 25.381 21.2857 19.8794C21.2857 14.5452 11.8039 0.925782 11.4002 0.348559Z" fill="#5B8FF9"/>
<path d="M13.6118 25.8848C7.94015 25.8848 3.32605 21.4088 3.32605 15.9071C3.32605 12.4337 7.34625 5.44766 10.2626 0.83667C8.50289 3.40475 0.714294 15.0449 0.714294 19.8794C0.714294 25.3811 5.3284 29.8571 11 29.8571C15.512 29.8571 19.3546 27.0241 20.7373 23.0956C18.8874 24.8218 16.3752 25.8848 13.6118 25.8848Z" fill="#1F61E8"/>
<g clip-path="url(#clip0_14918_72)">
<path d="M9.92907 21.3516C10.0702 21.4057 10.2311 21.3531 10.3091 21.2261L13.8561 15.4121C13.9135 15.318 13.9139 15.2011 13.8569 15.1071C13.7998 15.0128 13.6944 14.9561 13.5818 14.9591L11.1069 15.0248L11.9274 11.457C11.9605 11.3128 11.8812 11.167 11.7398 11.1124C11.5994 11.0582 11.4375 11.1111 11.3598 11.2379L7.81276 17.0519C7.75532 17.146 7.75499 17.2629 7.812 17.3569C7.86903 17.4512 7.97452 17.5079 8.08708 17.5049L10.562 17.4392L9.74147 21.007C9.70838 21.1512 9.78768 21.297 9.92907 21.3516Z" fill="white"/>
</g>
<defs>
<clipPath id="clip0_14918_72">
<rect width="10.5516" height="10.2361" fill="white" transform="matrix(0.999648 -0.0265312 0.0281931 0.999602 5.41632 11.2559)"/>
</clipPath>
</defs>
</svg>
